# xmcd
#
# Track frame offsets:
#	150
#	21139
#	37757
#
# Disc length: 821 seconds
#
# Revision: 0
# Processed by: cddbd v1.5.2PL0 Copyright (c) Steve Scherf et al.
# Submitted via: dBpowerAMP V4.0
#
DISCID=15033303
DTITLE=Secret Shine - Beyond Sea and Sky EP
DYEAR=2006
DGENRE=Shoegaze
TTITLE0=Lost Memory
TTITLE1=Hit The Ground
TTITLE2=Beyond Sea and Sky
EXTD=
EXTT0=
EXTT1=
EXTT2=
PLAYORDER=
